<svg xmlns="http://www.w3.org/2000/svg" viewBox="0 0 100 100" width="100" height="100">
  <defs>
    <linearGradient id="playGradient" x1="0%" y1="0%" x2="100%" y2="100%">
      <stop offset="0%" style="stop-color:#ff6b6b;stop-opacity:1" />
      <stop offset="50%" style="stop-color:#4ecdc4;stop-opacity:1" />
      <stop offset="100%" style="stop-color:#45b7d1;stop-opacity:1" />
    </linearGradient>
    <linearGradient id="svgGradient" x1="0%" y1="0%" x2="100%" y2="100%">
      <stop offset="0%" style="stop-color:#96ceb4;stop-opacity:1" />
      <stop offset="100%" style="stop-color:#ffeaa7;stop-opacity:1" />
    </linearGradient>
  </defs>
  
  <!-- Background circle -->
  <circle cx="50" cy="50" r="48" fill="#2d3436" stroke="#636e72" stroke-width="2"/>
  
  <!-- SVG code representation (left side) -->
  <rect x="15" y="25" width="25" height="18" rx="2" fill="url(#svgGradient)" opacity="0.8"/>
  <text x="27.5" y="36" text-anchor="middle" font-family="monospace" font-size="8" fill="#2d3436" font-weight="bold">&lt;/&gt;</text>
  
  <!-- Arrow indicating conversion -->
  <path d="M45 34 L55 34 M52 31 L55 34 L52 37" stroke="#ddd" stroke-width="2" fill="none" stroke-linecap="round"/>
  
  <!-- Video/film strip (right side) -->
  <rect x="60" y="25" width="25" height="18" rx="2" fill="#2d3436" stroke="#636e72" stroke-width="1"/>
  
  <!-- Film strip holes -->
  <rect x="62" y="27" width="2" height="2" fill="#636e72"/>
  <rect x="62" y="31" width="2" height="2" fill="#636e72"/>
  <rect x="62" y="35" width="2" height="2" fill="#636e72"/>
  <rect x="62" y="39" width="2" height="2" fill="#636e72"/>
  
  <rect x="81" y="27" width="2" height="2" fill="#636e72"/>
  <rect x="81" y="31" width="2" height="2" fill="#636e72"/>
  <rect x="81" y="35" width="2" height="2" fill="#636e72"/>
  <rect x="81" y="39" width="2" height="2" fill="#636e72"/>
  
  <!-- Play button in center of video -->
  <polygon points="70,30 70,38 76,34" fill="url(#playGradient)"/>
  
  <!-- Bottom section - animated elements -->
  <g opacity="0.7">
    <!-- Animated circle that pulses -->
    <circle cx="30" cy="65" r="8" fill="none" stroke="#ff6b6b" stroke-width="2">
      <animate attributeName="r" values="6;10;6" dur="2s" repeatCount="indefinite"/>
      <animate attributeName="opacity" values="1;0.3;1" dur="2s" repeatCount="indefinite"/>
    </circle>
    
    <!-- Animated square that rotates -->
    <rect x="46" y="61" width="8" height="8" fill="#4ecdc4" transform-origin="50 65">
      <animateTransform attributeName="transform" type="rotate" values="0 50 65;360 50 65" dur="3s" repeatCount="indefinite"/>
    </rect>
    
    <!-- Animated triangle that scales -->
    <polygon points="65,61 73,61 69,69" fill="#45b7d1">
      <animateTransform attributeName="transform" type="scale" values="1;1.3;1" dur="1.5s" repeatCount="indefinite" transform-origin="69 65"/>
    </polygon>
  </g>
  
  <!-- Progress bar at bottom -->
  <rect x="20" y="80" width="60" height="4" rx="2" fill="#636e72" opacity="0.3"/>
  <rect x="20" y="80" width="35" height="4" rx="2" fill="url(#playGradient)">
    <animate attributeName="width" values="0;60;0" dur="4s" repeatCount="indefinite"/>
  </rect>
</svg>
